<svg width="19" height="19" viewBox="0 0 19 19" fill="none" xmlns="http://www.w3.org/2000/svg">
<path d="M11.537 9.20441C12.2327 9.20441 12.825 8.96059 13.314 8.47294C13.803 7.9853 14.0474 7.3933 14.0474 6.69695C14.0474 6.0006 13.804 5.4086 13.317 4.92095C12.83 4.4333 12.238 4.18881 11.541 4.18747C10.844 4.18614 10.2516 4.42963 9.76398 4.91794C9.27634 5.40626 9.03184 5.99825 9.03051 6.69394C9.02917 7.38962 9.27299 7.98162 9.76198 8.46993C10.251 8.95825 10.8426 9.20308 11.537 9.20441ZM6.0976 13.6996C6.81135 12.9297 7.63747 12.3353 8.57597 11.9166C9.51314 11.4978 10.5008 11.2885 11.539 11.2885C12.5771 11.2885 13.5652 11.4978 14.503 11.9166C15.4408 12.3353 16.2666 12.9297 16.9803 13.6996C17.1476 13.6996 17.286 13.6387 17.3958 13.517C17.5048 13.3946 17.5593 13.2497 17.5593 13.0825V2.33522C17.5593 2.15461 17.5014 2.00644 17.3857 1.89072C17.27 1.77499 17.1222 1.71713 16.9422 1.71713H6.13573C5.95579 1.71713 5.80796 1.77499 5.69223 1.89072C5.57651 2.00644 5.51865 2.15461 5.51865 2.33522V13.0825C5.51865 13.2497 5.5735 13.3946 5.6832 13.517C5.79224 13.6387 5.93037 13.6996 6.0976 13.6996ZM6.13674 14.7612C5.69056 14.7612 5.30894 14.6023 4.99187 14.2846C4.6748 13.9668 4.51593 13.5859 4.51526 13.1417V2.33422C4.51526 1.88871 4.67413 1.50742 4.99187 1.19035C5.30961 0.873284 5.6909 0.714414 6.13573 0.713745H16.9422C17.3877 0.713745 17.769 0.872615 18.0861 1.19035C18.4032 1.50809 18.562 1.88938 18.5627 2.33422V13.1407C18.5627 13.5862 18.4038 13.9675 18.0861 14.2846C17.7683 14.6016 17.3871 14.7605 16.9422 14.7612H6.13674ZM2.12318 18.7747C1.67701 18.7747 1.29539 18.6159 0.978318 18.2981C0.661248 17.9804 0.502378 17.5994 0.501709 17.1553V4.7273H1.5051V17.1543C1.5051 17.3342 1.56296 17.482 1.67868 17.5978C1.79441 17.7135 1.94257 17.7713 2.12318 17.7713H14.5491V18.7747H2.12318ZM11.539 8.20103C11.1262 8.20103 10.7721 8.05319 10.4764 7.75753C10.1814 7.46253 10.0339 7.10834 10.0339 6.69494C10.0339 6.28155 10.1814 5.92768 10.4764 5.63336C10.7721 5.33769 11.1262 5.18986 11.539 5.18986C11.9517 5.18986 12.3059 5.33769 12.6016 5.63336C12.8972 5.92902 13.0447 6.28288 13.0441 6.69494C13.0434 7.107 12.8959 7.46153 12.6016 7.75853C12.3059 8.05286 11.9517 8.20103 11.539 8.20103ZM7.49532 13.7578H15.5826C15.0207 13.2695 14.3946 12.9029 13.7043 12.6581C13.014 12.4132 12.2922 12.2908 11.539 12.2908C10.7858 12.2908 10.064 12.4132 9.37366 12.6581C8.68333 12.9029 8.05722 13.2695 7.49532 13.7578Z" fill="#363636"/>
</svg>
