<svg width="17" height="17" viewBox="0 0 17 17" fill="none" xmlns="http://www.w3.org/2000/svg">
<path fill-rule="evenodd" clip-rule="evenodd" d="M3.17128 2.23493C2.99972 2.23493 2.81914 2.3094 2.67426 2.46903C2.52726 2.63101 2.43415 2.86451 2.43415 3.12098V14.3979C2.43415 14.6544 2.52726 14.8879 2.67426 15.0499C2.81914 15.2095 2.99972 15.284 3.17128 15.284H11.2188V8.33302V3.12098C11.2188 2.86451 11.1257 2.63101 10.9787 2.46903C10.8338 2.3094 10.6532 2.23493 10.4817 2.23493H3.17128ZM3.17128 16.7339H11.9438H13.6495C14.2942 16.7339 14.9124 16.4778 15.3683 16.0219C15.8241 15.5661 16.0802 14.9478 16.0802 14.3032V8.33302C16.0802 7.93264 15.7557 7.60807 15.3553 7.60807H12.6687V3.12098C12.6687 2.52292 12.4537 1.93689 12.0524 1.49463C11.6488 1.05003 11.0857 0.785034 10.4817 0.785034H3.17128C2.5673 0.785034 2.00411 1.05003 1.60061 1.49463C1.19922 1.93689 0.984253 2.52292 0.984253 3.12098V14.3979C0.984253 14.996 1.19922 15.582 1.60061 16.0243C2.00411 16.4689 2.5673 16.7339 3.17128 16.7339ZM12.6687 15.284V9.05797H14.6303V14.3032C14.6303 14.5633 14.527 14.8128 14.3431 14.9967C14.1591 15.1807 13.9096 15.284 13.6495 15.284H12.6687ZM5.12072 5.04943C4.72034 5.04943 4.39577 5.374 4.39577 5.77438C4.39577 6.17476 4.72034 6.49933 5.12072 6.49933H8.53224C8.93262 6.49933 9.25719 6.17476 9.25719 5.77438C9.25719 5.374 8.93262 5.04943 8.53224 5.04943H5.12072ZM4.39577 8.33302C4.39577 7.93264 4.72034 7.60807 5.12072 7.60807H8.53224C8.93262 7.60807 9.25719 7.93264 9.25719 8.33302C9.25719 8.7334 8.93262 9.05797 8.53224 9.05797H5.12072C4.72034 9.05797 4.39577 8.7334 4.39577 8.33302ZM5.12072 11.0196C4.72034 11.0196 4.39577 11.3442 4.39577 11.7445C4.39577 12.1449 4.72034 12.4695 5.12072 12.4695H7.67936C8.07974 12.4695 8.40431 12.1449 8.40431 11.7445C8.40431 11.3442 8.07974 11.0196 7.67936 11.0196H5.12072Z" fill="#363636"/>
</svg>
