<svg width="19" height="22" viewBox="0 0 19 22" fill="none" xmlns="http://www.w3.org/2000/svg">
<path d="M9.53572 12.8796H9.58497C10.6403 12.9077 11.4846 13.7661 11.4846 14.8214C11.4846 15.722 10.8725 16.4749 10.0423 16.7V17.488C10.0423 17.7695 9.81715 17.9946 9.53572 17.9946C9.25428 17.9946 9.02914 17.7695 9.02914 17.488V16.7C8.61573 16.5888 8.25044 16.3446 7.98973 16.0051C7.72902 15.6655 7.58741 15.2495 7.58679 14.8214C7.58679 14.54 7.81194 14.3149 8.09337 14.3149C8.3748 14.3149 8.59995 14.54 8.59995 14.8214C8.59995 15.3421 9.01507 15.7572 9.52868 15.7572C10.0423 15.7572 10.4644 15.3351 10.4644 14.8214C10.4644 14.3078 10.0423 13.8857 9.52868 13.8857H9.47943C8.97328 13.8719 8.49244 13.6614 8.13903 13.2988C7.78563 12.9362 7.58752 12.4501 7.58679 11.9438C7.58679 11.0432 8.19891 10.2904 9.02914 10.0652V9.27721C9.02914 8.99578 9.25428 8.77063 9.53572 8.77063C9.81715 8.77063 10.0423 8.99578 10.0423 9.27721V10.0652C10.8725 10.2904 11.4846 11.0432 11.4846 11.9438C11.4846 12.2252 11.2595 12.4504 10.9781 12.4504C10.6966 12.4504 10.4715 12.2252 10.4715 11.9438C10.4715 11.4302 10.0493 11.008 9.53572 11.008C9.0221 11.008 8.59995 11.4302 8.59995 11.9438C8.59995 12.4574 9.0221 12.8796 9.53572 12.8796Z" fill="#363636"/>
<path d="M5.80109 2.85703L7.76128 5.15071L7.5495 5.38712C3.51515 6.29192 0.501709 9.89497 0.501709 14.2023C0.501709 17.989 3.57496 21.0622 7.36164 21.0622H11.7027C15.4894 21.0622 18.5627 17.9897 18.5627 14.203C18.5697 9.89497 15.5563 6.29192 11.5219 5.38712C11.5383 5.23844 11.5115 5.08819 11.4445 4.95441L13.112 3.04559L13.2197 2.87955C13.3454 2.60538 13.3775 2.29751 13.3112 2.00329C13.2449 1.70907 13.0837 1.44478 12.8525 1.25108C12.6213 1.05739 12.3329 0.945001 12.0316 0.931212C11.7303 0.917423 11.4328 1.003 11.1849 1.17477L10.5918 0.471184C10.4587 0.322292 10.2958 0.203107 10.1136 0.121396C9.93143 0.0396853 9.73406 -0.00271789 9.53439 -0.00304979C9.33471 -0.0033817 9.13721 0.0383652 8.95474 0.11947C8.77228 0.200575 8.60896 0.319218 8.47541 0.467666L7.85415 1.1614C7.60687 0.986054 7.30871 0.897072 7.00578 0.908214C6.70286 0.919356 6.41204 1.03 6.17831 1.22304C5.94459 1.41607 5.78098 1.68074 5.71279 1.97611C5.6446 2.27147 5.67564 2.58108 5.80109 2.85703ZM8.47401 3.8315L7.28073 2.45247C7.55795 2.58605 7.87163 2.62399 8.17271 2.56033C8.47378 2.49668 8.74527 2.33504 8.9447 2.10068L9.50757 1.37036L10.1324 2.11053C10.3272 2.33707 10.5899 2.4946 10.8816 2.55964C11.1732 2.62468 11.478 2.59376 11.7506 2.47147L10.5629 3.8315H8.47401ZM1.90887 14.2023C1.90887 9.98925 5.32266 6.57547 9.53571 6.57547C13.7488 6.57547 17.1625 9.98925 17.1555 14.2009V14.2023C17.155 15.6483 16.5803 17.0349 15.5578 18.0574C14.5353 19.0798 13.1487 19.6545 11.7027 19.6551H7.36164C5.91565 19.6545 4.52904 19.0798 3.50657 18.0574C2.4841 17.0349 1.90943 15.6483 1.90887 14.2023Z" fill="#363636"/>
</svg>
