<svg width="18" height="18" viewBox="0 0 18 18" fill="none" xmlns="http://www.w3.org/2000/svg">
<path d="M15.6027 7.04731V14.071M4.36475 7.04731V14.071M2.25764 7.04731V14.071M13.4956 7.04731V14.071M1.90645 15.4758H15.9539M0.501709 17.2317H17.3586M8.93017 8.45205H8.2278C8.04152 8.45205 7.86287 8.52605 7.73114 8.65777C7.59942 8.78949 7.52542 8.96814 7.52542 9.15442V9.41781C7.52542 9.56978 7.57472 9.71766 7.6659 9.83923C7.75708 9.96081 7.88524 10.0495 8.03113 10.0921L9.8292 10.6168C9.9751 10.6593 10.1033 10.748 10.1944 10.8696C10.2856 10.9912 10.3349 11.1391 10.3349 11.291V11.9639C10.3349 12.1502 10.2609 12.3288 10.1292 12.4606C9.99747 12.5923 9.81882 12.6663 9.63254 12.6663H8.93017M8.93017 8.45205H9.63254C9.81882 8.45205 9.99747 8.52605 10.1292 8.65777C10.2609 8.78949 10.3349 8.96814 10.3349 9.15442V9.50561M8.93017 8.45205V7.04731M8.93017 12.6663H8.2278C8.04152 12.6663 7.86287 12.5923 7.73114 12.4606C7.59942 12.3288 7.52542 12.1502 7.52542 11.9639V11.6127M8.93017 12.6663V14.071M17.0074 5.11579V5.64256H0.852895V5.11579C4.36475 3.88663 6.47187 2.83308 8.75458 1.07715H9.10576C11.3885 2.83308 13.4956 3.88663 17.0074 5.11579Z" stroke="#363636"/>
</svg>
