<svg width="auto" height="10" viewBox="0 0 8 20" fill="none" xmlns="http://www.w3.org/2000/svg" style="max-height: 10px; max-width: 8px;">
    <path d="M3.53226 5.58944C3.80897 5.58944 4.08297 5.53401 4.33862 5.42632C4.59426 5.31863 4.82655 5.16078 5.02221 4.96179C5.21788 4.7628 5.37309 4.52657 5.47898 4.26658C5.58487 4.00658 5.63937 3.72793 5.63937 3.44651C5.63937 3.1651 5.58487 2.88644 5.47898 2.62645C5.37309 2.36646 5.21788 2.13023 5.02221 1.93124C4.82655 1.73225 4.59426 1.5744 4.33862 1.46671C4.08297 1.35902 3.80897 1.30359 3.53226 1.30359C2.97342 1.30359 2.43746 1.52936 2.0423 1.93124C1.64714 2.33311 1.42514 2.87818 1.42514 3.44651C1.42514 4.01485 1.64714 4.55991 2.0423 4.96179C2.43746 5.36367 2.97342 5.58944 3.53226 5.58944ZM1.72616 17.5278C1.72616 18.0149 1.91645 18.4821 2.25515 18.8266C2.59386 19.1711 3.05325 19.3646 3.53226 19.3646C4.01127 19.3646 4.47065 19.1711 4.80936 18.8266C5.14807 18.4821 5.33836 18.0149 5.33836 17.5278V14.4665C5.65769 14.4665 5.96395 14.3374 6.18976 14.1078C6.41557 13.8782 6.54242 13.5667 6.54242 13.2419V9.56834C6.54242 8.91881 6.28871 8.29588 5.8371 7.8366C5.38548 7.37731 4.77297 7.11928 4.13429 7.11928H2.93023C2.29155 7.11928 1.67903 7.37731 1.22742 7.8366C0.775808 8.29588 0.522095 8.91881 0.522095 9.56834V13.2419C0.522095 13.5667 0.648951 13.8782 0.874757 14.1078C1.10056 14.3374 1.40682 14.4665 1.72616 14.4665V17.5278Z" stroke="#363636" stroke-linecap="round" stroke-linejoin="round"/>
</svg>
