<svg width="22" height="22" viewBox="0 0 22 22" fill="none" xmlns="http://www.w3.org/2000/svg">
<path d="M14.1445 18.8935L20.5682 12.471C20.6806 12.3578 20.8186 12.2976 20.9824 12.2904C21.1461 12.2832 21.2918 12.3434 21.4194 12.471C21.5471 12.5987 21.6113 12.7403 21.6121 12.8961C21.6129 13.0518 21.5487 13.1939 21.4194 13.3223L14.8248 19.917C14.6305 20.112 14.4038 20.2096 14.1445 20.2096C13.8852 20.2096 13.6584 20.112 13.4642 19.917L10.2867 16.7394C10.1743 16.6271 10.1141 16.489 10.106 16.3252C10.098 16.1615 10.1582 16.0158 10.2867 15.8882C10.4151 15.7605 10.5572 15.6963 10.7129 15.6955C10.8686 15.6947 11.0107 15.7589 11.1391 15.8882L14.1445 18.8935ZM2.2435 21.5449C1.70809 21.5449 1.25015 21.3542 0.86966 20.9729C0.489176 20.5916 0.298532 20.1345 0.297729 19.6015V4.22438C0.297729 3.68977 0.488373 3.23223 0.86966 2.85174C1.25095 2.47126 1.70849 2.28062 2.2423 2.27981H7.82555C7.93793 1.80943 8.18797 1.41409 8.57568 1.09381C8.96339 0.772725 9.41491 0.612183 9.93025 0.612183C10.4552 0.612183 10.9104 0.772725 11.2957 1.09381C11.681 1.41329 11.9298 1.80862 12.0422 2.27981H17.617C18.1524 2.27981 18.6108 2.47046 18.9921 2.85174C19.3733 3.23303 19.5636 3.69058 19.5628 4.22438V8.90217C19.5628 9.07315 19.505 9.21603 19.3894 9.33082C19.2738 9.44561 19.1305 9.5034 18.9595 9.50421C18.7886 9.50501 18.6457 9.44721 18.5309 9.33082C18.4161 9.21443 18.3587 9.07155 18.3587 8.90217V4.22558C18.3587 4.04016 18.2817 3.86998 18.1275 3.71506C17.9734 3.56014 17.8032 3.48308 17.617 3.48388H14.7465V5.19726C14.7465 5.47259 14.6542 5.70377 14.4696 5.89081C14.285 6.07784 14.0562 6.17095 13.7833 6.17015H6.07724C5.80432 6.17015 5.57555 6.07703 5.39093 5.89081C5.2063 5.70458 5.11399 5.4734 5.11399 5.19726V3.48388H2.2435C2.05807 3.48388 1.8879 3.56094 1.73298 3.71506C1.57805 3.86918 1.50099 4.03935 1.5018 4.22558V19.6003C1.5018 19.7849 1.57886 19.9547 1.73298 20.1096C1.8871 20.2645 2.05687 20.3416 2.2423 20.3408H8.12416C8.29513 20.3408 8.43801 20.3986 8.5528 20.5142C8.66759 20.6298 8.72539 20.7731 8.72619 20.944C8.72699 21.115 8.6692 21.2579 8.5528 21.3727C8.43641 21.4875 8.29353 21.5449 8.12416 21.5449H2.2435ZM9.93387 3.76081C10.2108 3.76081 10.4416 3.6677 10.6262 3.48147C10.8108 3.29444 10.9031 3.06246 10.9031 2.78552C10.9031 2.50859 10.8096 2.27781 10.6226 2.09318C10.4356 1.90856 10.2036 1.81625 9.92664 1.81625C9.64971 1.81625 9.41893 1.91017 9.2343 2.098C9.04968 2.28583 8.95737 2.51782 8.95737 2.79395C8.95737 3.07008 9.05129 3.30046 9.23912 3.48508C9.42695 3.66971 9.65854 3.76081 9.93387 3.76081Z" fill="#363636"/>
</svg>
