<svg width="14" height="17" viewBox="0 0 14 17" fill="none" xmlns="http://www.w3.org/2000/svg">
<path d="M3.31799 6.04388V10.2581" stroke="#363636" stroke-width="2" stroke-miterlimit="10" stroke-linecap="round" stroke-linejoin="round"/>
<path d="M5.7262 6.04388V7.24795" stroke="#363636" stroke-width="2" stroke-miterlimit="10" stroke-linecap="round" stroke-linejoin="round"/>
<path d="M8.13428 6.64594V7.24797" stroke="#363636" stroke-width="2" stroke-miterlimit="10" stroke-linecap="round" stroke-linejoin="round"/>
<path d="M10.5424 7.24796V7.84999" stroke="#363636" stroke-width="2" stroke-miterlimit="10" stroke-linecap="round" stroke-linejoin="round"/>
<path d="M11.9271 6.04388C11.1445 5.92348 10.5424 6.52551 10.5424 7.24795V6.70612C10.5424 6.10409 10.121 5.56226 9.51898 5.44185C8.73634 5.32144 8.13431 5.92348 8.13431 6.64591V6.10409C8.13431 5.50205 7.71288 4.96022 7.11085 4.83982C6.32821 4.71941 5.72617 5.32144 5.72617 6.04388V1.88986C5.72617 1.28782 5.30475 0.745994 4.70272 0.625587C3.98028 0.505181 3.31804 1.10721 3.31804 1.82965V6.94693C3.31804 6.04388 2.5354 5.38165 1.63235 5.44185C1.33133 5.44185 1.09052 5.56226 0.909912 5.74287V10.3785C0.909912 13.4489 3.25784 16.158 6.32821 16.2784C6.50882 16.2784 6.68943 16.2784 6.80983 16.2784C10.3016 16.158 12.9506 13.2081 12.9506 9.71628V9.65608V7.30815C12.9506 6.70612 12.5291 6.16429 11.9271 6.04388Z" stroke="#363636" stroke-miterlimit="10" stroke-linecap="round" stroke-linejoin="round"/>
</svg>
