<svg width="18" height="14" viewBox="0 0 18 14" fill="none" xmlns="http://www.w3.org/2000/svg">
<path d="M3.66238 1.11757C3.66238 0.982462 3.71788 0.852891 3.81667 0.757358C3.91546 0.661824 4.04945 0.608154 4.18916 0.608154H7.34983C7.48954 0.608154 7.62353 0.661824 7.72232 0.757358C7.82111 0.852891 7.87661 0.982462 7.87661 1.11757V4.17404C7.87661 4.30915 7.82111 4.43872 7.72232 4.53425C7.62353 4.62978 7.48954 4.68345 7.34983 4.68345H4.18916C4.04945 4.68345 3.91546 4.62978 3.81667 4.53425C3.71788 4.43872 3.66238 4.30915 3.66238 4.17404V1.11757ZM10.5105 0.608154C10.3708 0.608154 10.2368 0.661824 10.138 0.757358C10.0392 0.852891 9.98373 0.982462 9.98373 1.11757V4.17404C9.98373 4.30915 10.0392 4.43872 10.138 4.53425C10.2368 4.62978 10.3708 4.68345 10.5105 4.68345H13.6712C13.8109 4.68345 13.9449 4.62978 14.0437 4.53425C14.1425 4.43872 14.198 4.30915 14.198 4.17404V1.11757C14.198 0.982462 14.1425 0.852891 14.0437 0.757358C13.9449 0.661824 13.8109 0.608154 13.6712 0.608154H10.5105ZM11.0373 3.66463V1.62698H13.1444V3.66463H11.0373ZM4.71594 10.7964C4.99536 10.7964 5.26334 10.6891 5.46092 10.498C5.6585 10.3069 5.7695 10.0478 5.7695 9.77758C5.7695 9.50737 5.6585 9.24823 5.46092 9.05716C5.26334 8.86609 4.99536 8.75875 4.71594 8.75875C4.43652 8.75875 4.16854 8.86609 3.97096 9.05716C3.77338 9.24823 3.66238 9.50737 3.66238 9.77758C3.66238 10.0478 3.77338 10.3069 3.97096 10.498C4.16854 10.6891 4.43652 10.7964 4.71594 10.7964ZM9.98373 9.77758C9.98373 10.0478 9.87273 10.3069 9.67515 10.498C9.47756 10.6891 9.20959 10.7964 8.93017 10.7964C8.65075 10.7964 8.38277 10.6891 8.18519 10.498C7.98761 10.3069 7.87661 10.0478 7.87661 9.77758C7.87661 9.50737 7.98761 9.24823 8.18519 9.05716C8.38277 8.86609 8.65075 8.75875 8.93017 8.75875C9.20959 8.75875 9.47756 8.86609 9.67515 9.05716C9.87273 9.24823 9.98373 9.50737 9.98373 9.77758ZM13.1444 10.7964C13.4238 10.7964 13.6918 10.6891 13.8894 10.498C14.087 10.3069 14.198 10.0478 14.198 9.77758C14.198 9.50737 14.087 9.24823 13.8894 9.05716C13.6918 8.86609 13.4238 8.75875 13.1444 8.75875C12.865 8.75875 12.597 8.86609 12.3994 9.05716C12.2018 9.24823 12.0908 9.50737 12.0908 9.77758C12.0908 10.0478 12.2018 10.3069 12.3994 10.498C12.597 10.6891 12.865 10.7964 13.1444 10.7964ZM0.501709 9.77758C0.501709 8.69674 0.945707 7.66017 1.73603 6.89591C2.52635 6.13164 3.59826 5.70228 4.71594 5.70228H13.1444C14.2621 5.70228 15.334 6.13164 16.1243 6.89591C16.9146 7.66017 17.3586 8.69674 17.3586 9.77758C17.3586 10.8584 16.9146 11.895 16.1243 12.6592C15.334 13.4235 14.2621 13.8529 13.1444 13.8529H4.71594C3.59826 13.8529 2.52635 13.4235 1.73603 12.6592C0.945707 11.895 0.501709 10.8584 0.501709 9.77758ZM4.71594 6.7211C3.87768 6.7211 3.07375 7.04312 2.48101 7.61632C1.88826 8.18952 1.55527 8.96695 1.55527 9.77758C1.55527 10.5882 1.88826 11.3656 2.48101 11.9388C3.07375 12.512 3.87768 12.8341 4.71594 12.8341H13.1444C13.9827 12.8341 14.7866 12.512 15.3793 11.9388C15.9721 11.3656 16.3051 10.5882 16.3051 9.77758C16.3051 8.96695 15.9721 8.18952 15.3793 7.61632C14.7866 7.04312 13.9827 6.7211 13.1444 6.7211H4.71594Z" fill="#363636"/>
</svg>
