<svg width="18" height="18" viewBox="0 0 18 18" fill="none" xmlns="http://www.w3.org/2000/svg">
<path d="M10.0012 1.0752C9.91896 0.992654 9.82119 0.927188 9.71354 0.882574C9.60589 0.83796 9.49047 0.815078 9.37394 0.815248H1.38893C1.15363 0.815248 0.927957 0.908723 0.761571 1.07511C0.595184 1.2415 0.501709 1.46716 0.501709 1.70247V9.68748C0.501709 9.92348 0.594867 10.1488 0.761665 10.3147L7.85945 17.4125C7.94166 17.4952 8.03939 17.5608 8.14704 17.6056C8.25469 17.6504 8.37013 17.6734 8.48672 17.6734C8.60331 17.6734 8.71875 17.6504 8.8264 17.6056C8.93405 17.5608 9.03178 17.4952 9.11399 17.4125L17.099 9.42753C17.1815 9.3452 17.2469 9.24743 17.2915 9.13979C17.3362 9.03216 17.3591 8.91678 17.3591 8.80026C17.3591 8.68374 17.3362 8.56836 17.2915 8.46072C17.2469 8.35309 17.1815 8.25532 17.099 8.17299L10.0012 1.0752ZM8.48672 15.5307L2.27616 9.32017V2.58969H9.00663L15.2172 8.80026L8.48672 15.5307Z" fill="#363636"/>
<path d="M5.378 7.02583C6.11545 7.02583 6.71327 6.42801 6.71327 5.69056C6.71327 4.95311 6.11545 4.35529 5.378 4.35529C4.64055 4.35529 4.04272 4.95311 4.04272 5.69056C4.04272 6.42801 4.64055 7.02583 5.378 7.02583Z" fill="#363636"/>
</svg>
