<svg width="21" height="20" viewBox="0 0 21 20" fill="none" xmlns="http://www.w3.org/2000/svg">
<path d="M1.50176 18.9533L6.71614 13.7389M6.71614 13.7389C5.30486 12.3277 4.51201 10.4136 4.51201 8.4177C4.51201 6.42185 5.30486 4.50774 6.71614 3.09646C8.12742 1.68518 10.0415 0.892334 12.0374 0.892334C14.0332 0.892334 15.9473 1.68518 17.3586 3.09646C18.7699 4.50774 19.5627 6.42185 19.5627 8.4177C19.5627 10.4136 18.7699 12.3277 17.3586 13.7389C15.9473 15.1502 14.0332 15.9431 12.0374 15.9431C10.0415 15.9431 8.12742 15.1502 6.71614 13.7389ZM12.0369 5.40817V11.4282M9.02684 8.4182H15.0469" stroke="#363636" stroke-width="1.5" stroke-linecap="round" stroke-linejoin="round"/>
</svg>
