<svg width="21" height="20" viewBox="0 0 21 20" fill="none" xmlns="http://www.w3.org/2000/svg">
<path fill-rule="evenodd" clip-rule="evenodd" d="M5.67168 18.5557C5.36855 18.4345 5.10248 18.3125 4.87356 18.1975C4.41903 18.971 3.57826 19.4902 2.61628 19.4902C1.17133 19.4902 4.76837e-05 18.3189 4.76837e-05 16.874V11.6416C4.76837e-05 10.1966 1.17133 9.02533 2.61628 9.02533C3.83884 9.02533 4.86554 9.86392 5.15254 10.9973C5.40178 11.0847 5.6532 11.1662 5.9081 11.239C6.64588 11.4498 7.53453 11.6415 8.28477 11.6415C9.39632 11.6415 11.3876 11.2363 12.5402 10.9756C13.4141 10.778 14.3116 11.2669 14.5999 12.1318L14.9447 13.1662C15.9113 12.8058 17.0816 12.2208 17.8984 11.7875C18.812 11.3029 19.9732 11.6982 20.3676 12.6842L20.6427 13.3718C20.9115 14.0438 20.7418 14.8381 20.153 15.3232C19.4796 15.8782 18.1467 16.907 16.5134 17.801C14.8959 18.6864 12.8932 19.4902 10.901 19.4902C8.6016 19.4902 6.85683 19.0298 5.67168 18.5557ZM3.48835 16.874C3.48835 17.3557 3.09793 17.7461 2.61628 17.7461C2.13463 17.7461 1.7442 17.3557 1.7442 16.874V11.6416C1.7442 11.1599 2.13463 10.7695 2.61628 10.7695C3.09793 10.7695 3.48835 11.1599 3.48835 11.6416V16.874ZM8.28477 13.3856C9.62646 13.3856 11.8137 12.9281 12.9249 12.6769C12.9249 12.6769 13.2165 13.4972 13.2592 13.6251L9.90117 14.4999C9.49835 14.6048 9.26848 15.0286 9.40007 15.4235C9.51135 15.7572 9.84649 15.9615 10.1934 15.903C11.2583 15.7233 13.4716 15.3304 14.5999 14.9873C16.1196 14.5252 17.6938 13.8705 18.7157 13.3283C18.7157 13.3283 18.9856 13.9254 19.0156 14.0004C18.3802 14.5221 17.1556 15.4612 15.676 16.2711C14.1583 17.1017 12.4625 17.746 10.901 17.746C7.82868 17.746 5.9504 16.8352 5.23251 16.4075V12.8586C6.21961 13.1537 7.25005 13.3856 8.28477 13.3856Z" fill="#363636"/>
<path d="M10.4649 0.304565C10.9466 0.304565 11.337 0.695011 11.337 1.17664V6.04775L12.4645 4.92027C12.8051 4.57983 13.3572 4.57983 13.6978 4.92027C14.0384 5.26093 14.0384 5.813 13.6978 6.15366L11.0824 8.7692C10.742 9.10948 10.1903 9.10975 9.84969 8.76981L7.23389 6.15941C6.89335 5.81897 6.89335 5.26668 7.23389 4.92624C7.57444 4.58558 8.12664 4.58558 8.46718 4.92624L9.59286 6.05185V1.17664C9.59286 0.695011 9.98329 0.304565 10.4649 0.304565Z" fill="#363636"/>
</svg>
