<svg width="25" height="23" viewBox="0 0 25 23" fill="none" xmlns="http://www.w3.org/2000/svg">
  <path d="M14.7 9.34729C13.5583 8.29353 10.5135 7.94304 10.5135 10.0506C10.5135 12.1581 14.7 11.1043 14.7 13.2107C14.7 15.3171 11.275 15.3182 10.1333 13.9128M12.4166 14.8912V16.3731M12.4166 8.51045V7.23978M1 7.23978L12.1107 1.68443C12.2057 1.637 12.3104 1.6123 12.4166 1.6123C12.5228 1.6123 12.6276 1.637 12.7226 1.68443L23.8333 7.23978" 
        stroke="#363636" 
        stroke-width="1.5" 
        stroke-linecap="round" 
        stroke-linejoin="round"/>
  <path d="M21.55 10.6648V19.7981C21.55 20.4037 21.3094 20.9845 20.8812 21.4127C20.453 21.8409 19.8722 22.0814 19.2666 22.0814H5.56666C4.96108 22.0814 4.3803 21.8409 3.9521 21.4127C3.52389 20.9845 3.28333 20.4037 3.28333 19.7981V10.6648" 
        stroke="#363636" 
        stroke-width="1.5" 
        stroke-linecap="round" 
        stroke-linejoin="round"/>
</svg>
