<svg width="20" height="20" viewBox="0 0 20 20" fill="none" xmlns="http://www.w3.org/2000/svg">
<path d="M2.09532 4.16184C2.97545 4.16184 3.68894 3.44836 3.68894 2.56823C3.68894 1.6881 2.97545 0.974609 2.09532 0.974609C1.2152 0.974609 0.501709 1.6881 0.501709 2.56823C0.501709 3.44836 1.2152 4.16184 2.09532 4.16184Z" stroke="#363636" stroke-linecap="round"/>
<path d="M2.09532 11.5987C2.97545 11.5987 3.68894 10.8853 3.68894 10.0051C3.68894 9.12499 2.97545 8.41151 2.09532 8.41151C1.2152 8.41151 0.501709 9.12499 0.501709 10.0051C0.501709 10.8853 1.2152 11.5987 2.09532 11.5987Z" stroke="#363636" stroke-linecap="round"/>
<path d="M2.09532 19.0356C2.97545 19.0356 3.68894 18.3221 3.68894 17.442C3.68894 16.5619 2.97545 15.8484 2.09532 15.8484C1.2152 15.8484 0.501709 16.5619 0.501709 17.442C0.501709 18.3221 1.2152 19.0356 2.09532 19.0356Z" stroke="#363636" stroke-linecap="round"/>
<path d="M16.9691 0.974634H8.46984C7.58971 0.974634 6.87622 1.68812 6.87622 2.56825C6.87622 3.44838 7.58971 4.16187 8.46984 4.16187H16.9691C17.8493 4.16187 18.5627 3.44838 18.5627 2.56825C18.5627 1.68812 17.8493 0.974634 16.9691 0.974634Z" stroke="#363636" stroke-linecap="round"/>
<path d="M16.9691 8.4115H8.46984C7.58971 8.4115 6.87622 9.12499 6.87622 10.0051C6.87622 10.8852 7.58971 11.5987 8.46984 11.5987H16.9691C17.8493 11.5987 18.5627 10.8852 18.5627 10.0051C18.5627 9.12499 17.8493 8.4115 16.9691 8.4115Z" stroke="#363636" stroke-linecap="round"/>
<path d="M16.9691 15.8484H8.46984C7.58971 15.8484 6.87622 16.5619 6.87622 17.442C6.87622 18.3221 7.58971 19.0356 8.46984 19.0356H16.9691C17.8493 19.0356 18.5627 18.3221 18.5627 17.442C18.5627 16.5619 17.8493 15.8484 16.9691 15.8484Z" stroke="#363636" stroke-linecap="round"/>
</svg>
