<svg width="11" height="11" viewBox="0 0 11 11" fill="none" xmlns="http://www.w3.org/2000/svg">
<path d="M0.846154 0.846154V10.1538H10.1538V0.846154H0.846154ZM0.423077 0H10.5769C10.6891 0 10.7967 0.044574 10.8761 0.123916C10.9554 0.203259 11 0.31087 11 0.423077V10.5769C11 10.6891 10.9554 10.7967 10.8761 10.8761C10.7967 10.9554 10.6891 11 10.5769 11H0.423077C0.31087 11 0.203259 10.9554 0.123916 10.8761C0.044574 10.7967 0 10.6891 0 10.5769V0.423077C0 0.31087 0.044574 0.203259 0.123916 0.123916C0.203259 0.044574 0.31087 0 0.423077 0Z" fill="#363636" fill-opacity="0.3"/>
<path d="M3.80772 2.53833C4.37182 2.53833 4.65387 2.82038 4.65387 3.38448C4.65387 3.94859 4.37182 4.23064 3.80772 4.23064C3.24361 4.23064 2.96156 3.94859 2.96156 3.38448C2.96156 2.82038 3.24361 2.53833 3.80772 2.53833ZM1.1821 10.3255L0.510254 9.81102L3.36772 6.08202C3.46905 5.94967 3.59546 5.83858 3.73973 5.75509C3.884 5.6716 4.04331 5.61734 4.20855 5.59542C4.37379 5.5735 4.54173 5.58434 4.70278 5.62732C4.86383 5.67031 5.01484 5.7446 5.14718 5.84595L5.17171 5.86541L6.79633 7.1761C6.88374 7.24645 6.99552 7.2792 7.10707 7.26714C7.21863 7.25508 7.32082 7.1992 7.39118 7.11179L10.2469 3.54356L10.9069 4.07156L8.05371 7.63895L8.05033 7.64318C7.94569 7.77301 7.81649 7.88096 7.67012 7.96084C7.52375 8.04072 7.36307 8.09098 7.19726 8.10874C7.03146 8.1265 6.86378 8.11141 6.70381 8.06434C6.54384 8.01727 6.39471 7.93914 6.26495 7.83441L4.64033 6.52456L4.63187 6.51779C4.54283 6.44983 4.43048 6.41995 4.31945 6.4347C4.20842 6.44945 4.10776 6.50763 4.03956 6.59648L1.1821 10.3255Z" fill="#363636" fill-opacity="0.3"/>
</svg>
