<svg width="25" height="17" viewBox="0 0 25 17" fill="none" xmlns="http://www.w3.org/2000/svg">
<path d="M12.5 6.5377C13.1429 6.5377 13.7492 6.6627 14.3188 6.9127C14.8885 7.1627 15.3849 7.50436 15.8081 7.9377C16.2313 8.37103 16.569 8.88353 16.8213 9.4752C17.0736 10.0669 17.1956 10.6877 17.1875 11.3377C17.1875 12.0044 17.0654 12.6252 16.8213 13.2002C16.5771 13.7752 16.2435 14.2835 15.8203 14.7252C15.3971 15.1669 14.8966 15.5127 14.3188 15.7627C13.741 16.0127 13.1348 16.1377 12.5 16.1377C11.849 16.1377 11.2427 16.0127 10.6812 15.7627C10.1196 15.5127 9.62321 15.171 9.19189 14.7377C8.76058 14.3044 8.42285 13.796 8.17871 13.2127C7.93457 12.6294 7.8125 12.0044 7.8125 11.3377C7.8125 10.6794 7.93457 10.0585 8.17871 9.4752C8.42285 8.89186 8.75651 8.38353 9.17969 7.9502C9.60286 7.51686 10.0993 7.17103 10.6689 6.9127C11.2386 6.65436 11.849 6.52936 12.5 6.5377ZM12.5 14.5377C12.9313 14.5377 13.3341 14.4544 13.7085 14.2877C14.0828 14.121 14.4165 13.8919 14.7095 13.6002C15.0024 13.3085 15.2262 12.971 15.3809 12.5877C15.5355 12.2044 15.6169 11.7877 15.625 11.3377C15.625 10.896 15.5436 10.4835 15.3809 10.1002C15.2181 9.71686 14.9943 9.3752 14.7095 9.0752C14.4246 8.7752 14.0951 8.54603 13.7207 8.3877C13.3464 8.22936 12.9395 8.14603 12.5 8.1377C12.0687 8.1377 11.6659 8.22103 11.2915 8.3877C10.9172 8.55436 10.5835 8.78353 10.2905 9.0752C9.99756 9.36686 9.77376 9.70436 9.61914 10.0877C9.46452 10.471 9.38314 10.8877 9.375 11.3377C9.375 11.7794 9.45638 12.1919 9.61914 12.5752C9.7819 12.9585 10.0057 13.3002 10.2905 13.6002C10.5754 13.9002 10.9049 14.1294 11.2793 14.2877C11.6536 14.446 12.0605 14.5294 12.5 14.5377ZM12.5 0.137695C13.6637 0.137695 14.8193 0.283529 15.9668 0.575195C17.1143 0.866862 18.1966 1.30436 19.2139 1.8877C20.2311 2.47103 21.1507 3.17936 21.9727 4.0127C22.7946 4.84603 23.4701 5.82103 23.999 6.9377C24.3245 7.62936 24.5728 8.34186 24.7437 9.0752C24.9146 9.80853 25 10.5627 25 11.3377H23.4375C23.4375 10.3544 23.291 9.43353 22.998 8.5752C22.7051 7.71686 22.3022 6.93353 21.7896 6.2252C21.2769 5.51686 20.6665 4.88353 19.9585 4.3252C19.2505 3.76686 18.4977 3.29603 17.7002 2.9127C16.9027 2.52936 16.0522 2.2377 15.1489 2.0377C14.2456 1.8377 13.3626 1.7377 12.5 1.7377C11.6211 1.7377 10.7381 1.8377 9.85107 2.0377C8.96403 2.2377 8.11768 2.52936 7.31201 2.9127C6.50635 3.29603 5.74951 3.76686 5.0415 4.3252C4.3335 4.88353 3.72721 5.51686 3.22266 6.2252C2.7181 6.93353 2.3112 7.71686 2.00195 8.5752C1.69271 9.43353 1.54622 10.3544 1.5625 11.3377H0C0 10.571 0.0854492 9.82103 0.256348 9.0877C0.427246 8.35436 0.675456 7.6377 1.00098 6.9377C1.52181 5.8377 2.1932 4.86686 3.01514 4.0252C3.83708 3.18353 4.76074 2.47103 5.78613 1.8877C6.81152 1.30436 7.89388 0.871029 9.0332 0.587695C10.1725 0.304362 11.3281 0.154362 12.5 0.137695Z" fill="#20CC90"/>
</svg>
