<svg width="16" height="17" viewBox="0 0 16 17" fill="none" xmlns="http://www.w3.org/2000/svg">
<path d="M8.88889 0.137695C9.11545 0.137947 9.33336 0.224699 9.49811 0.380227C9.66285 0.535755 9.76199 0.74832 9.77526 0.974491C9.78854 1.20066 9.71496 1.42337 9.56954 1.5971C9.42413 1.77084 9.21786 1.88249 8.99289 1.90925L8.88889 1.91547H1.77778V14.3599H14.2222V7.24881C14.2225 7.02225 14.3092 6.80433 14.4648 6.63959C14.6203 6.47485 14.8328 6.37571 15.059 6.36243C15.2852 6.34915 15.5079 6.42274 15.6816 6.56815C15.8554 6.71357 15.967 6.91983 15.9938 7.14481L16 7.24881V14.3599C16.0001 14.8084 15.8308 15.2404 15.5258 15.5693C15.2208 15.8982 14.8028 16.0996 14.3556 16.1333L14.2222 16.1377H1.77778C1.32927 16.1378 0.897274 15.9684 0.568402 15.6635C0.23953 15.3585 0.038083 14.9405 0.00444464 14.4933L8.91271e-08 14.3599V1.91547C-0.000141848 1.46696 0.16925 1.03497 0.47422 0.706097C0.779189 0.377225 1.1972 0.175778 1.64444 0.14214L1.77778 0.137695H8.88889ZM14.4382 0.442584C14.5982 0.283164 14.8128 0.190608 15.0386 0.183715C15.2643 0.176822 15.4842 0.256109 15.6536 0.405472C15.823 0.554835 15.9292 0.763075 15.9506 0.987895C15.972 1.21272 15.907 1.43726 15.7689 1.61592L15.6951 1.70036L6.89511 10.4995C6.73515 10.6589 6.5205 10.7514 6.29477 10.7583C6.06904 10.7652 5.84914 10.6859 5.67975 10.5366C5.51036 10.3872 5.40417 10.179 5.38276 9.95416C5.36134 9.72934 5.4263 9.5048 5.56444 9.32614L5.63822 9.24258L14.4382 0.442584Z" fill="#20CC90"/>
</svg>
