<svg width="17" height="18" viewBox="0 0 17 18" fill="none" xmlns="http://www.w3.org/2000/svg">
<path d="M14 10.862H14.4483C15.2937 10.862 15.716 10.862 15.9787 10.5994C16.2414 10.3367 16.2414 9.91439 16.2414 9.06894V8.17239C16.2414 6.48149 16.2414 5.63694 15.716 5.11156C15.1906 4.58618 14.3461 4.58618 12.6552 4.58618H4.58621C2.89531 4.58618 2.05076 4.58618 1.52538 5.11156C1 5.63694 1 6.48149 1 8.17239V9.96549C1 10.3878 1 10.5994 1.1309 10.7311C1.26269 10.862 1.47428 10.862 1.89655 10.862H3.24138" stroke="#20CC90"/>
<path d="M3.6897 16.5157V9.06898C3.6897 8.22353 3.6897 7.80126 3.95239 7.53857C4.21508 7.27588 4.63735 7.27588 5.4828 7.27588H11.7587C12.6041 7.27588 13.0264 7.27588 13.2891 7.53857C13.5518 7.80126 13.5518 8.22353 13.5518 9.06898V16.5157C13.5518 16.7999 13.5518 16.9416 13.4585 17.0088C13.3653 17.0761 13.2308 17.0313 12.9618 16.9416L11.0181 16.2934C10.9691 16.2717 10.9165 16.2589 10.863 16.2557C10.8095 16.2619 10.7576 16.2777 10.7097 16.3024L8.78749 17.0716C8.73566 17.0988 8.679 17.1155 8.62073 17.1209C8.56246 17.1155 8.50581 17.0988 8.45397 17.0716L6.53177 16.3024C6.45646 16.2719 6.4188 16.2575 6.37935 16.2557C6.3399 16.2539 6.30046 16.2674 6.22335 16.2934L4.27963 16.9416C4.01066 17.0313 3.87618 17.0761 3.78294 17.0088C3.6897 16.9416 3.6897 16.7999 3.6897 16.5157Z" stroke="#20CC90"/>
<path d="M6.37927 10.8621H9.96548M6.37927 13.5517H10.862" stroke="#20CC90" stroke-linecap="round"/>
<path d="M13.5518 4.58621V4.22759C13.5518 2.70614 13.5518 1.94497 13.0793 1.47248C12.6068 1 11.8456 1 10.3242 1H6.91728C5.39584 1 4.63466 1 4.16218 1.47248C3.6897 1.94497 3.6897 2.70614 3.6897 4.22759V4.58621" stroke="#20CC90"/>
</svg>
