<svg width="16" height="16" viewBox="0 0 16 16" fill="none" xmlns="http://www.w3.org/2000/svg">
<path d="M10.5453 7.9926C10.5453 8.32672 10.4795 8.65758 10.3515 8.96627C10.2235 9.27496 10.0359 9.55544 9.79943 9.7917C9.56295 10.028 9.28221 10.2154 8.97323 10.3432C8.66426 10.4711 8.3331 10.5369 7.99867 10.5369C7.32325 10.5369 6.67549 10.2688 6.1979 9.7917C5.72031 9.31455 5.452 8.66739 5.452 7.9926C5.452 7.31781 5.72031 6.67065 6.1979 6.1935C6.67549 5.71635 7.32325 5.44829 7.99867 5.44829C8.67408 5.44829 9.32184 5.71635 9.79943 6.1935C10.277 6.67065 10.5453 7.31781 10.5453 7.9926ZM12.6647 14.4733L10.8473 12.6583C9.99024 13.1827 9.00503 13.4608 8 13.4622C7.28101 13.4624 6.56903 13.321 5.90473 13.0462C5.24043 12.7714 4.63684 12.3685 4.12844 11.8606C3.62003 11.3526 3.21678 10.7496 2.94171 10.0859C2.66665 9.42225 2.52516 8.71093 2.52533 7.9926C2.52736 6.98882 2.80624 6.00501 3.33133 5.14923L1.51133 3.33092C0.531448 4.68839 0.00281868 6.31894 0 7.9926C0 12.4065 3.582 15.9852 8 15.9852C9.67497 15.9815 11.3065 15.4527 12.6647 14.4733ZM8 0C6.32503 0.00367674 4.69346 0.532509 3.33533 1.51193L5.15333 3.32625C6.01031 2.80223 6.99526 2.5243 8 2.523C8.71899 2.52282 9.43098 2.66418 10.0953 2.93899C10.7596 3.2138 11.3632 3.61668 11.8716 4.12462C12.38 4.63255 12.7832 5.23558 13.0583 5.89927C13.3334 6.56295 13.4748 7.27427 13.4747 7.9926C13.4726 8.99638 13.1938 9.98018 12.6687 10.836L14.4887 12.6543C15.4686 11.2968 15.9972 9.66626 16 7.9926C16 3.57869 12.418 0 8 0Z" fill="#FCB017"/>
</svg>
