<svg width="16" height="16" viewBox="0 0 16 16" fill="none" xmlns="http://www.w3.org/2000/svg">
<path d="M7.3032 0L8.8824 0.004C9.5048 0.0792 10.0504 0.372 10.5 0.8664C10.8672 1.2696 11.06 1.7384 11.0712 2.2488H15.4512C15.5975 2.24965 15.7374 2.30851 15.8403 2.41245C15.9432 2.5164 16.0006 2.65694 16 2.8032C16.0004 2.94932 15.9429 3.08965 15.84 3.19343C15.7371 3.2972 15.5973 3.35595 15.4512 3.3568L13.9824 3.356V12.6576C13.9824 14.692 13.2232 16 11.5496 16H4.3352C2.6616 16 1.9144 14.6992 1.9144 12.6576V3.356H0.5488C0.402956 3.35515 0.263373 3.29662 0.160544 3.1932C0.0577151 3.08977 -2.45063e-06 2.94985 0 2.804C0 2.4976 0.2456 2.2504 0.5488 2.2504H4.9248C4.936 1.8392 5.0888 1.4224 5.368 1.0104C5.784 0.396 6.4336 0.0592 7.3032 0ZM12.8848 3.356H3.0112V12.6576C3.0112 14.168 3.4272 14.8928 4.3352 14.8928H11.5496C12.4608 14.8928 12.8856 14.1616 12.8856 12.6576L12.8848 3.356ZM5.3728 5.072C5.6752 5.072 5.9208 5.32 5.9208 5.6256V12.0656C5.92123 12.2117 5.8637 12.3521 5.76082 12.4558C5.65795 12.5596 5.51812 12.6184 5.372 12.6192C5.22602 12.6181 5.0864 12.5593 4.9837 12.4555C4.88099 12.3518 4.82357 12.2116 4.824 12.0656V5.6256C4.824 5.32 5.0704 5.072 5.3728 5.072ZM7.5528 5.072C7.8568 5.072 8.1016 5.32 8.1016 5.6256V12.0656C8.10203 12.2117 8.0445 12.3521 7.94162 12.4558C7.83875 12.5596 7.69892 12.6184 7.5528 12.6192C7.40682 12.6181 7.2672 12.5593 7.1645 12.4555C7.06179 12.3518 7.00437 12.2116 7.0048 12.0656V5.6256C7.0048 5.32 7.2504 5.072 7.5528 5.072ZM9.7352 5.072C10.0376 5.072 10.2832 5.32 10.2832 5.6256V12.0656C10.2836 12.2116 10.2262 12.3518 10.1235 12.4555C10.0208 12.5593 9.88118 12.6181 9.7352 12.6192C9.58908 12.6184 9.44925 12.5596 9.34638 12.4558C9.24351 12.3521 9.18598 12.2117 9.1864 12.0656V5.6256C9.18598 5.47948 9.24351 5.33915 9.34638 5.23537C9.44925 5.1316 9.58908 5.07285 9.7352 5.072ZM7.3408 1.1056C6.8272 1.1416 6.4888 1.3168 6.2736 1.6352C6.1152 1.868 6.036 2.0696 6.0232 2.2496L9.9736 2.2488C9.9624 2.016 9.8704 1.8112 9.692 1.6152C9.4152 1.3112 9.108 1.1464 8.8176 1.1072L7.3408 1.1056Z" fill="#20CC90"/>
</svg>
